<svg xmlns="http://www.w3.org/2000/svg" viewBox="0 0 455 455">
  <path d="M163.2 320.7a112 112 0 0 0 64.2 20.2c12 0 23.4-2.5 34.4-6-2-26.5-7.2-52.7-15-78a173.6 173.6 0 0 0-83.6 63.8zM238.3 233.3c-2.8-6.9-5.6-13.4-8.8-20a198.5 198.5 0 0 1-80.2 17.2 260 260 0 0 1-35.2-3c0 29.6 11.6 56.3 30.2 76.5 24.2-33.3 57-57.5 94-70.7zM290.2 133c-18-11.9-39.5-18.9-62.8-18.9-10.3 0-20 1.8-29.6 4.4a366.4 366.4 0 0 1 42.7 60.8c19-11.8 35.9-27.3 49.7-46.3zM218 190.8a345.1 345.1 0 0 0-44.7-62.3 113.1 113.1 0 0 0-56 73.3 174 174 0 0 0 100.6-11zM271 250a370 370 0 0 1 14.9 74.2 113.6 113.6 0 0 0 52.7-74 173 173 0 0 0-67.6-.1zM252 201.7a368 368 0 0 1 10.4 24.4c25.3-5.7 51.8-5.8 78.2-1.1a113.2 113.2 0 0 0-31-75.4c-16 21.3-35.7 39-57.7 52.1z"/>
  <path d="M0 0v455h455V0H0zm227.4 366.1a138.7 138.7 0 1 1 138.7-138.7 139 139 0 0 1-138.7 138.7z"/>
</svg>