<svg xmlns="http://www.w3.org/2000/svg" width="32" height="32">
  <path d="M14.51 18.16c1.03.72 1.86 1.16 2.07 1.98.04.17.06.34.06.5 0 1.45-.93 2.57-3.6 2.57-1.89 0-3.25-1.2-3.25-2.64 0-1.4 1.6-2.63 3.5-2.6.44 0 .85.07 1.22.2zM32 0v32H0V0h32zM15.88 9.1h1.24L18.18 8h-4.72c-2.4 0-4.39 1.77-4.39 3.7 0 2 1.31 3.57 3.56 3.57.16 0 .31 0 .46-.02-.14.28-.25.6-.25.92 0 .55.3.87.68 1.23h-.86c-2.74 0-4.65 1.9-4.65 3.7 0 1.78 2.31 2.9 5.05 2.9 3.12 0 5.04-1.77 5.04-3.56 0-1.43-.3-2.14-1.83-3.29-.44-.32-1.39-1-1.39-1.45 0-.52.15-.79.95-1.4.81-.65 1.4-1.49 1.4-2.53 0-1.13-.47-2.16-1.35-2.66zM24 10.4h-2.17V8.21h-1.09v2.17h-2.18v1.1h2.18v2.17h1.09v-2.18h2.17V10.4zM12.75 8.77c-1.27-.04-2.12 1.24-1.9 2.9.22 1.68 1.42 2.84 2.7 2.88 1.27.04 2-1.04 1.78-2.7-.22-1.67-1.3-3.04-2.58-3.08z"/>
</svg>