<svg xmlns="http://www.w3.org/2000/svg" viewBox="0 0 242.7 242.7">
  <path d="M0 0v242.7h242.7V0H0zm155.3 148.4a43.4 43.4 0 0 1-37.5 3c-3.9-2-7.2-6.8-7.2-6.8s-4.6 19.6-8.2 29.8c-3.7 10.1-15.5 23.8-15.5 23.8s-3.8-15.3-1-32 11.5-52.7 11.5-52.7-5.4-10.6-1-21c4.4-10.6 12-15.4 22-11.6 10 3.8 5.2 18 4.2 21.5-1.1 3.5-8 21.4-6 27.7 2.2 6.2 16.9 19.4 34.6-4.9 17.8-24.3 8-50.4-7-60-10.6-6.8-36.5-14.3-55.3 7-23.4 26.4-2.8 49.2-2.8 49.2l-5.4 12.8s-22.2-4.4-20.2-37c2-32.4 32.8-52.9 61.6-52.7A58.9 58.9 0 0 1 179.6 83c9 23-5.7 55.9-24.3 65.4z"/>
</svg>