<svg xmlns="http://www.w3.org/2000/svg" viewBox="0 0 242.7 242.7">
  <path d="M0 0v242.7h242.7V0H0zm186.1 86.4c-4.1 3.7-8.7 6.7-8.7 6.7s3.7 15.5-6.6 39a78 78 0 0 1-55.6 45.5 93.8 93.8 0 0 1-45.2-1.2c-9.5-2.7-19.7-9.8-19.7-9.8s16.6.5 26.8-3c10.2-3.3 16.1-8.5 16.1-8.5s-10.9-.8-19.5-8.5c-8.7-7.6-9.1-13.3-9.1-13.3s4.5 1 9 1 5-.3 5-.3-12.3-3.4-19.1-14.6c-6.8-11.2-5.1-15.5-5.1-15.5s2.5 2.2 7 3.6c4.6 1.4 7.3.4 7.3.4s-11.6-6.4-12.5-19.7c-.8-13.4 3.6-19.6 3.6-19.6s8 14.5 28 22.7 32.4 7.7 32.4 7.7-6.2-23 17.6-33c23.8-9.9 34 7.7 34 7.7s7.5-2.2 11-4 5.7-4.1 5.7-4.1-1.2 4.9-4.3 9c-3 4-7.4 7.8-7.4 7.8s4.6-1.2 8.8-2.6c4.1-1.3 6.8-2.4 6.8-2.4s-2.1 5.4-6.3 9z"/>
</svg>