<svg width="0" height="0" class="hidden">
  <symbol xmlns="http://www.w3.org/2000/svg" viewBox="0 0 455 455" id="dribbble">
    <path d="M163.2 320.7a112 112 0 0 0 64.2 20.2c12 0 23.4-2.5 34.4-6-2-26.5-7.2-52.7-15-78a173.6 173.6 0 0 0-83.6 63.8zm75.1-87.4c-2.8-6.9-5.6-13.4-8.8-20a198.5 198.5 0 0 1-80.2 17.2 260 260 0 0 1-35.2-3c0 29.6 11.6 56.3 30.2 76.5 24.2-33.3 57-57.5 94-70.7zM290.2 133c-18-11.9-39.5-18.9-62.8-18.9-10.3 0-20 1.8-29.6 4.4a366.4 366.4 0 0 1 42.7 60.8c19-11.8 35.9-27.3 49.7-46.3zM218 190.8a345.1 345.1 0 0 0-44.7-62.3 113.1 113.1 0 0 0-56 73.3 174 174 0 0 0 100.6-11zm53 59.2a370 370 0 0 1 14.9 74.2 113.6 113.6 0 0 0 52.7-74 173 173 0 0 0-67.6-.1zm-19-48.3a368 368 0 0 1 10.4 24.4c25.3-5.7 51.8-5.8 78.2-1.1a113.2 113.2 0 0 0-31-75.4c-16 21.3-35.7 39-57.7 52.1z"></path>
    <path d="M0 0v455h455V0H0zm227.4 366.1a138.7 138.7 0 1 1 138.7-138.7 139 139 0 0 1-138.7 138.7z"></path>
  </symbol>
  <symbol xmlns="http://www.w3.org/2000/svg" viewBox="0 0 455 455" id="facebook">
    <path d="M0 0v455h455V0H0zm301 125h-36c-7 0-14 7-14 13v36h50c-2 28-6 53-6 53h-44v158h-65V227h-32v-53h32v-43c0-8-2-61 67-61h48v55z"></path>
  </symbol>
  <symbol xmlns="http://www.w3.org/2000/svg" viewBox="0 0 32 32" id="google-plus">
    <path d="M14.51 18.16c1.03.72 1.86 1.16 2.07 1.98.04.17.06.34.06.5 0 1.45-.93 2.57-3.6 2.57-1.89 0-3.25-1.2-3.25-2.64 0-1.4 1.6-2.63 3.5-2.6.44 0 .85.07 1.22.2zM32 0v32H0V0h32zM15.88 9.1h1.24L18.18 8h-4.72c-2.4 0-4.39 1.77-4.39 3.7 0 2 1.31 3.57 3.56 3.57.16 0 .31 0 .46-.02-.14.28-.25.6-.25.92 0 .55.3.87.68 1.23h-.86c-2.74 0-4.65 1.9-4.65 3.7 0 1.78 2.31 2.9 5.05 2.9 3.12 0 5.04-1.77 5.04-3.56 0-1.43-.3-2.14-1.83-3.29-.44-.32-1.39-1-1.39-1.45 0-.52.15-.79.95-1.4.81-.65 1.4-1.49 1.4-2.53 0-1.13-.47-2.16-1.35-2.66zM24 10.4h-2.17V8.21h-1.09v2.17h-2.18v1.1h2.18v2.17h1.09v-2.18H24V10.4zM12.75 8.77c-1.27-.04-2.12 1.24-1.9 2.9.22 1.68 1.42 2.84 2.7 2.88 1.27.04 2-1.04 1.78-2.7-.22-1.67-1.3-3.04-2.58-3.08z"></path>
  </symbol>
  <symbol xmlns="http://www.w3.org/2000/svg" viewBox="0 0 243 243" id="linkedin">
    <path d="M0 0v243h243V0H0zm81 193H53V93h28v100zM68 82c-10 0-18-7-18-16s8-16 18-16 17 7 17 16-8 16-17 16zm124 111h-29v-59s1-10-5-15c-2-3-6-4-10-4-12 0-18 8-20 13v65h-28V93h28v9c9-8 20-12 30-12 27 0 34 21 34 32v71z"></path>
  </symbol>
  <symbol xmlns="http://www.w3.org/2000/svg" viewBox="0 0 511.6 511.6" id="mail">
    <path d="M49.1 178.7l58.5 40.7A14317.8 14317.8 0 0 1 210 291.1c4 2.7 9 5.8 14.8 9.3 5.8 3.4 11.3 6 16.5 7.7 5 1.7 9.8 2.5 14.2 2.5h.6c4.4 0 9.1-.8 14.3-2.5a86.2 86.2 0 0 0 16.4-7.7 301.5 301.5 0 0 0 30.3-20.2l12-8.7 133.7-92.8a135.6 135.6 0 0 0 34.8-35c9.4-13.8 14-28.2 14-43.2 0-12.6-4.5-23.3-13.5-32.3-9-9-19.8-13.4-32.2-13.4H45.7c-14.7 0-26 5-33.9 14.9a57.6 57.6 0 0 0-11.8 37c0 12 5.2 25 15.7 39s21.6 25 33.4 33z"></path>
    <path d="M483 209.3a5933.7 5933.7 0 0 0-168.5 117.2 163 163 0 0 1-27 13.7 82.2 82.2 0 0 1-31.4 7h-.6c-9.7 0-20.2-2.4-31.4-7a163 163 0 0 1-27-13.7 676.2 676.2 0 0 1-26.4-18.7c-25.7-18.9-73-51.7-141.9-98.5A151.2 151.2 0 0 1 0 184.4v226.7a44 44 0 0 0 13.4 32.3 44 44 0 0 0 32.3 13.4h420.2a44 44 0 0 0 32.3-13.4 44 44 0 0 0 13.4-32.3V184.4a157.4 157.4 0 0 1-28.5 24.9z"></path>
  </symbol>
  <symbol xmlns="http://www.w3.org/2000/svg" viewBox="0 0 512 512" id="map_mark">
    <path d="M256 0C154 0 71 83 71 185c0 127 166 314 173 321 6 8 18 8 24 0 7-7 173-194 173-321C441 83 358 0 256 0zm0 279a93 93 0 1 1 0-187 93 93 0 0 1 0 187z"></path>
  </symbol>
  <symbol xmlns="http://www.w3.org/2000/svg" viewBox="0 0 500 500" id="phone">
    <path d="M300 133c33 34 67 34 67 67s-34 67-67 100-67 67-100 67-33-34-67-67S0 367 0 400s100 100 100 100c67 0 202-68 267-133s133-200 133-267c0 0-67-100-100-100S267 100 300 133z"></path>
  </symbol>
  <symbol xmlns="http://www.w3.org/2000/svg" viewBox="0 0 242.7 242.7" id="pinterest">
    <path d="M0 0v242.7h242.7V0H0zm155.3 148.4a43.4 43.4 0 0 1-37.5 3c-3.9-2-7.2-6.8-7.2-6.8s-4.6 19.6-8.2 29.8c-3.7 10.1-15.5 23.8-15.5 23.8s-3.8-15.3-1-32 11.5-52.7 11.5-52.7-5.4-10.6-1-21c4.4-10.6 12-15.4 22-11.6 10 3.8 5.2 18 4.2 21.5-1.1 3.5-8 21.4-6 27.7 2.2 6.2 16.9 19.4 34.6-4.9 17.8-24.3 8-50.4-7-60-10.6-6.8-36.5-14.3-55.3 7-23.4 26.4-2.8 49.2-2.8 49.2l-5.4 12.8s-22.2-4.4-20.2-37c2-32.4 32.8-52.9 61.6-52.7A58.9 58.9 0 0 1 179.6 83c9 23-5.7 55.9-24.3 65.4z"></path>
  </symbol>
  <symbol xmlns="http://www.w3.org/2000/svg" viewBox="0 0 242.7 242.7" id="twitter">
    <path d="M0 0v242.7h242.7V0H0zm186.1 86.4c-4.1 3.7-8.7 6.7-8.7 6.7s3.7 15.5-6.6 39a78 78 0 0 1-55.6 45.5 93.8 93.8 0 0 1-45.2-1.2c-9.5-2.7-19.7-9.8-19.7-9.8s16.6.5 26.8-3c10.2-3.3 16.1-8.5 16.1-8.5s-10.9-.8-19.5-8.5c-8.7-7.6-9.1-13.3-9.1-13.3s4.5 1 9 1 5-.3 5-.3-12.3-3.4-19.1-14.6c-6.8-11.2-5.1-15.5-5.1-15.5s2.5 2.2 7 3.6c4.6 1.4 7.3.4 7.3.4s-11.6-6.4-12.5-19.7c-.8-13.4 3.6-19.6 3.6-19.6s8 14.5 28 22.7 32.4 7.7 32.4 7.7-6.2-23 17.6-33c23.8-9.9 34 7.7 34 7.7s7.5-2.2 11-4 5.7-4.1 5.7-4.1-1.2 4.9-4.3 9c-3 4-7.4 7.8-7.4 7.8s4.6-1.2 8.8-2.6c4.1-1.3 6.8-2.4 6.8-2.4s-2.1 5.4-6.3 9z"></path>
  </symbol>
</svg>